<svg width="40" height="40" viewBox="0 0 40 40" fill="none" xmlns="http://www.w3.org/2000/svg">
<path d="M28.3335 35H11.6668C10.7828 35 9.93493 34.6488 9.30981 34.0237C8.68469 33.3986 8.3335 32.5507 8.3335 31.6667V8.33333C8.3335 7.44928 8.68469 6.60143 9.30981 5.97631C9.93493 5.35119 10.7828 5 11.6668 5H23.3335L31.6668 13.3333V31.6667C31.6668 32.5507 31.3156 33.3986 30.6905 34.0237C30.0654 34.6488 29.2176 35 28.3335 35Z" fill="white" stroke="white" stroke-width="2" stroke-linecap="round" stroke-linejoin="round"/>
<path d="M23.333 5V11.6667C23.333 12.1087 23.5086 12.5326 23.8212 12.8452C24.1337 13.1577 24.5576 13.3333 24.9997 13.3333H31.6663" fill="#373B54"/>
<path d="M23.333 5V11.6667C23.333 12.1087 23.5086 12.5326 23.8212 12.8452C24.1337 13.1577 24.5576 13.3333 24.9997 13.3333H31.6663" stroke="white" stroke-width="2" stroke-linecap="round" stroke-linejoin="round"/>
</svg>
