<svg width="144" height="145" viewBox="0 0 144 145" fill="none" xmlns="http://www.w3.org/2000/svg">
<rect width="144" height="145" rx="72" fill="#7C5DF9"/>
<path d="M94.5 78L87 70.5H69.5C68.837 70.5 68.2011 70.2366 67.7322 69.7678C67.2634 69.2989 67 68.663 67 68V53C67 52.337 67.2634 51.7011 67.7322 51.2322C68.2011 50.7634 68.837 50.5 69.5 50.5H92C92.663 50.5 93.2989 50.7634 93.7678 51.2322C94.2366 51.7011 94.5 52.337 94.5 53V78Z" stroke="white" stroke-width="8" stroke-linecap="round" stroke-linejoin="round"/>
<path d="M77 80.5V85.5C77 86.163 76.7366 86.7989 76.2678 87.2678C75.7989 87.7366 75.163 88 74.5 88H57L49.5 95.5V70.5C49.5 69.837 49.7634 69.2011 50.2322 68.7322C50.7011 68.2634 51.337 68 52 68H57" stroke="white" stroke-width="8" stroke-linecap="round" stroke-linejoin="round"/>
</svg>
