<svg width="60" height="60" viewBox="0 0 60 60" fill="none" xmlns="http://www.w3.org/2000/svg">
<path d="M52.5 35L45 27.5H27.5C26.837 27.5 26.2011 27.2366 25.7322 26.7678C25.2634 26.2989 25 25.663 25 25V10C25 9.33696 25.2634 8.70107 25.7322 8.23223C26.2011 7.76339 26.837 7.5 27.5 7.5H50C50.663 7.5 51.2989 7.76339 51.7678 8.23223C52.2366 8.70107 52.5 9.33696 52.5 10V35Z" stroke="#7c5df9" stroke-width="4" stroke-linecap="round" stroke-linejoin="round"/>
<path d="M35 37.5V42.5C35 43.163 34.7366 43.7989 34.2678 44.2678C33.7989 44.7366 33.163 45 32.5 45H15L7.5 52.5V27.5C7.5 26.837 7.76339 26.2011 8.23223 25.7322C8.70107 25.2634 9.33696 25 10 25H15" stroke="#7c5df9" stroke-width="4" stroke-linecap="round" stroke-linejoin="round"/>
</svg>
